{
  "asset": {
    "version": "2.0",
    "generator": "THREE.GLTFExporter"
  },
  "scenes": [
    {
      "nodes": [
        0
      ]
    }
  ],
  "scene": 0,
  "nodes": [
    {
      "children": [
        18
      ],
      "matrix": [
        0.01,
        0,
        0,
        0,
        0,
        0.01,
        0,
        0,
        0,
        0,
        0.01,
        0,
        0,
        0,
        0,
        1
      ]
    },
    {
      "matrix": [
        0.9816485945625335,
        -0.01246624051922734,
        0.19029090792972617,
        0,
        -0.040382275135946805,
        0.9616423672663056,
        0.27131758021422236,
        0,
        -0.18637410938284157,
        -0.27402290109728594,
        0.9434914631441983,
        0,
        -308.70572720824174,
        -63.091611821488634,
        118.81299316458781,
        0.9999999999999998
      ],
      "name": "Cube 4",
      "mesh": 0
    },
    {
      "matrix": [
        0.9816485945625335,
        -0.012466240519227364,
        0.19029090792972608,
        0,
        -0.030311972549204674,
        0.9749742732460327,
        0.220241573796926,
        0,
        -0.18827432409539793,
        -0.22196792415952193,
        0.9567042487261848,
        0,
        -299.8597778157741,
        -65.2738840270509,
        124.8327335496474,
        0.9999999999999998
      ],
      "name": "Cube 3",
      "mesh": 1
    },
    {
      "matrix": [
        0.9816485945625335,
        -0.01246624051922735,
        0.19029090792972614,
        0,
        -0.02918870958533136,
        0.976280584826117,
        0.21453260573702682,
        0,
        -0.18845173394306008,
        -0.2161499769578803,
        0.9580005905191095,
        0,
        -290.31058605630227,
        -65.45860211004073,
        128.09255680068287,
        1
      ],
      "name": "Cube 2",
      "mesh": 2
    },
    {
      "matrix": [
        0.9816485945625335,
        -0.012466240519227356,
        0.19029090792972603,
        0,
        -0.02336342249434033,
        0.982481826118126,
        0.18488810626144547,
        0,
        -0.18926221831827306,
        -0.18594099654167012,
        0.9641606497479229,
        0,
        -279.9991281041974,
        -65.35798536632154,
        128.01159842310815,
        1
      ],
      "name": "Cube",
      "mesh": 3
    },
    {
      "matrix": [
        2.220446049250313e-16,
        -2.220446049250313e-16,
        1,
        0,
        1,
        0,
        -2.220446049250313e-16,
        0,
        0,
        1,
        2.220446049250313e-16,
        0,
        73.0104320365761,
        1.0000000000015938,
        -424.1860802025302,
        1
      ],
      "name": "Shape"
    },
    {
      "matrix": [
        1.019545813014514,
        0,
        0,
        0,
        0,
        1,
        0,
        0,
        0,
        0,
        1,
        0,
        -182.45296846685855,
        0,
        0,
        1
      ],
      "name": "Shape Blend 3"
    },
    {
      "name": "Shape Blend 2"
    },
    {
      "matrix": [
        1.019545813014514,
        0,
        0,
        0,
        0,
        1,
        0,
        0,
        0,
        0,
        1,
        0,
        -111.63916953225285,
        -74.79489426188786,
        54.12174480866953,
        1
      ],
      "name": "Sphere",
      "mesh": 4
    },
    {
      "matrix": [
        1,
        0,
        0,
        0,
        0,
        0.16783009110803493,
        -0.9858159364296505,
        0,
        0,
        0.9858159364296505,
        0.16783009110803493,
        0,
        -138.52353402310564,
        -39.707657581105344,
        79.9519305825935,
        1
      ],
      "name": "Sphere",
      "mesh": 5
    },
    {
      "matrix": [
        0.9254694771956892,
        -0.03986850485840276,
        0.37671839495768367,
        0,
        0,
        0.9944465009641607,
        0.10524332149898008,
        0,
        -0.3788221835889998,
        -0.09739948172599894,
        0.9203298833463841,
        0,
        -168.5427472304134,
        -26.403871413604517,
        114.67799076882372,
        1
      ],
      "name": "Sphere",
      "mesh": 6
    },
    {
      "matrix": [
        1,
        0,
        0,
        0,
        0,
        1,
        0,
        0,
        0,
        0,
        1,
        0,
        -121.8670780122893,
        0,
        0,
        1
      ],
      "name": "Shape Blend",
      "children": [
        8,
        9,
        10
      ]
    },
    {
      "matrix": [
        -0.09694404029336479,
        0.003727228006029592,
        -0.02813134086060761,
        0,
        0.00033946470894876345,
        -0.10746481687126444,
        -0.02865245747000564,
        0,
        -0.013511223661692714,
        -0.020046215187445784,
        0.14828517774283317,
        0,
        -312.0464060381074,
        -29.156888842479688,
        139.12530708247579,
        1.0000000000000002
      ],
      "name": "Hurted Heart 2"
    },
    {
      "matrix": [
        1,
        0,
        0,
        0,
        0,
        1,
        0,
        0,
        0,
        0,
        1,
        0,
        -287.34481252578007,
        -33.88696873361738,
        106.80696866872105,
        1
      ],
      "name": "Boolean 4",
      "mesh": 7
    },
    {
      "matrix": [
        1,
        0,
        0,
        0,
        0,
        1,
        0,
        0,
        0,
        0,
        1,
        0,
        -270.34481252578007,
        3.0704309441682653,
        142.4917896972238,
        1
      ],
      "name": "Group"
    },
    {
      "matrix": [
        0.5883484054145521,
        0.39223227027636803,
        -0.7071067811865475,
        0,
        -0.554700196225229,
        0.8320502943378437,
        0,
        0,
        0.588348405414552,
        0.392232270276368,
        0.7071067811865476,
        0,
        0,
        0,
        0,
        1
      ],
      "name": "Directional Light",
      "extensions": {
        "KHR_lights_punctual": {
          "light": 0
        }
      }
    },
    {
      "matrix": [
        -0.4165794170678332,
        5.282497775316308e-8,
        0.9090993286079476,
        0,
        0.16587651134916348,
        0.9832128227260218,
        0.07601005334664018,
        0,
        -0.8938381130037221,
        0.18246244881379142,
        -0.4095862333072482,
        0,
        -1139.7123890918115,
        137.6609814037551,
        -253.9466261273693,
        1
      ],
      "camera": 0
    },
    {
      "matrix": [
        1,
        0,
        0,
        0,
        0,
        1,
        0,
        0,
        0,
        0,
        1,
        0,
        0,
        1,
        0,
        1
      ],
      "name": "Default Ambient Light"
    },
    {
      "name": "Scene 1",
      "children": [
        1,
        2,
        3,
        4,
        5,
        6,
        7,
        11,
        12,
        13,
        14,
        15,
        16,
        17
      ]
    }
  ],
  "bufferViews": [
    {
      "buffer": 0,
      "byteOffset": 0,
      "byteLength": 7200,
      "target": 34962,
      "byteStride": 12
    },
    {
      "buffer": 0,
      "byteOffset": 7200,
      "byteLength": 7200,
      "target": 34962,
      "byteStride": 12
    },
    {
      "buffer": 0,
      "byteOffset": 14400,
      "byteLength": 4800,
      "target": 34962,
      "byteStride": 8
    },
    {
      "buffer": 0,
      "byteOffset": 19200,
      "byteLength": 4296,
      "target": 34963
    },
    {
      "buffer": 0,
      "byteOffset": 23496,
      "byteLength": 7200,
      "target": 34962,
      "byteStride": 12
    },
    {
      "buffer": 0,
      "byteOffset": 30696,
      "byteLength": 7200,
      "target": 34962,
      "byteStride": 12
    },
    {
      "buffer": 0,
      "byteOffset": 37896,
      "byteLength": 4800,
      "target": 34962,
      "byteStride": 8
    },
    {
      "buffer": 0,
      "byteOffset": 42696,
      "byteLength": 4296,
      "target": 34963
    },
    {
      "buffer": 0,
      "byteOffset": 46992,
      "byteLength": 7200,
      "target": 34962,
      "byteStride": 12
    },
    {
      "buffer": 0,
      "byteOffset": 54192,
      "byteLength": 7200,
      "target": 34962,
      "byteStride": 12
    },
    {
      "buffer": 0,
      "byteOffset": 61392,
      "byteLength": 4800,
      "target": 34962,
      "byteStride": 8
    },
    {
      "buffer": 0,
      "byteOffset": 66192,
      "byteLength": 4296,
      "target": 34963
    },
    {
      "buffer": 0,
      "byteOffset": 70488,
      "byteLength": 7200,
      "target": 34962,
      "byteStride": 12
    },
    {
      "buffer": 0,
      "byteOffset": 77688,
      "byteLength": 7200,
      "target": 34962,
      "byteStride": 12
    },
    {
      "buffer": 0,
      "byteOffset": 84888,
      "byteLength": 4800,
      "target": 34962,
      "byteStride": 8
    },
    {
      "buffer": 0,
      "byteOffset": 89688,
      "byteLength": 4296,
      "target": 34963
    },
    {
      "buffer": 0,
      "byteOffset": 93984,
      "byteLength": 540,
      "target": 34962,
      "byteStride": 12
    },
    {
      "buffer": 0,
      "byteOffset": 94524,
      "byteLength": 540,
      "target": 34962,
      "byteStride": 12
    },
    {
      "buffer": 0,
      "byteOffset": 95064,
      "byteLength": 360,
      "target": 34962,
      "byteStride": 8
    },
    {
      "buffer": 0,
      "byteOffset": 95424,
      "byteLength": 288,
      "target": 34963
    },
    {
      "buffer": 0,
      "byteOffset": 95712,
      "byteLength": 540,
      "target": 34962,
      "byteStride": 12
    },
    {
      "buffer": 0,
      "byteOffset": 96252,
      "byteLength": 540,
      "target": 34962,
      "byteStride": 12
    },
    {
      "buffer": 0,
      "byteOffset": 96792,
      "byteLength": 360,
      "target": 34962,
      "byteStride": 8
    },
    {
      "buffer": 0,
      "byteOffset": 97152,
      "byteLength": 288,
      "target": 34963
    },
    {
      "buffer": 0,
      "byteOffset": 97440,
      "byteLength": 540,
      "target": 34962,
      "byteStride": 12
    },
    {
      "buffer": 0,
      "byteOffset": 97980,
      "byteLength": 540,
      "target": 34962,
      "byteStride": 12
    },
    {
      "buffer": 0,
      "byteOffset": 98520,
      "byteLength": 360,
      "target": 34962,
      "byteStride": 8
    },
    {
      "buffer": 0,
      "byteOffset": 98880,
      "byteLength": 288,
      "target": 34963
    },
    {
      "buffer": 0,
      "byteOffset": 99168,
      "byteLength": 262440,
      "target": 34962,
      "byteStride": 12
    },
    {
      "buffer": 0,
      "byteOffset": 361608,
      "byteLength": 262440,
      "target": 34962,
      "byteStride": 12
    }
  ],
  "buffers": [
    {
      "byteLength": 624048,
      "uri": "data:application/octet-stream;base64,"
    }
  ],
  "accessors": [
    {
      "bufferView": 0,
      "componentType": 5126,
      "count": 600,
      "max": [
        0.5,
        6.853471755981445,
        10.620950698852539
      ],
      "min": [
        -0.5,
        -6.853471755981445,
        -10.620950698852539
      ],
      "type": "VEC3"
    },
    {
      "bufferView": 1,
      "componentType": 5126,
      "count": 600,
      "max": [
        1,
        1,
        1
      ],
      "min": [
        -1,
        -1,
        -1
      ],
      "type": "VEC3"
    },
    {
      "bufferView": 2,
      "componentType": 5126,
      "count": 600,
      "max": [
        1,
        1
      ],
      "min": [
        0,
        0
      ],
      "type": "VEC2"
    },
    {
      "bufferView": 3,
      "componentType": 5123,
      "count": 2148,
      "max": [
        599
      ],
      "min": [
        0
      ],
      "type": "SCALAR"
    },
    {
      "bufferView": 4,
      "componentType": 5126,
      "count": 600,
      "max": [
        0.5,
        6.853471755981445,
        10.620950698852539
      ],
      "min": [
        -0.5,
        -6.853471755981445,
        -10.620950698852539
      ],
      "type": "VEC3"
    },
    {
      "bufferView": 5,
      "componentType": 5126,
      "count": 600,
      "max": [
        1,
        1,
        1
      ],
      "min": [
        -1,
        -1,
        -1
      ],
      "type": "VEC3"
    },
    {
      "bufferView": 6,
      "componentType": 5126,
      "count": 600,
      "max": [
        1,
        1
      ],
      "min": [
        0,
        0
      ],
      "type": "VEC2"
    },
    {
      "bufferView": 7,
      "componentType": 5123,
      "count": 2148,
      "max": [
        599
      ],
      "min": [
        0
      ],
      "type": "SCALAR"
    },
    {
      "bufferView": 8,
      "componentType": 5126,
      "count": 600,
      "max": [
        0.5,
        6.853471755981445,
        10.620950698852539
      ],
      "min": [
        -0.5,
        -6.853471755981445,
        -10.620950698852539
      ],
      "type": "VEC3"
    },
    {
      "bufferView": 9,
      "componentType": 5126,
      "count": 600,
      "max": [
        1,
        1,
        1
      ],
      "min": [
        -1,
        -1,
        -1
      ],
      "type": "VEC3"
    },
    {
      "bufferView": 10,
      "componentType": 5126,
      "count": 600,
      "max": [
        1,
        1
      ],
      "min": [
        0,
        0
      ],
      "type": "VEC2"
    },
    {
      "bufferView": 11,
      "componentType": 5123,
      "count": 2148,
      "max": [
        599
      ],
      "min": [
        0
      ],
      "type": "SCALAR"
    },
    {
      "bufferView": 12,
      "componentType": 5126,
      "count": 600,
      "max": [
        0.5,
        6.853471755981445,
        10.620950698852539
      ],
      "min": [
        -0.5,
        -6.853471755981445,
        -10.620950698852539
      ],
      "type": "VEC3"
    },
    {
      "bufferView": 13,
      "componentType": 5126,
      "count": 600,
      "max": [
        1,
        1,
        1
      ],
      "min": [
        -1,
        -1,
        -1
      ],
      "type": "VEC3"
    },
    {
      "bufferView": 14,
      "componentType": 5126,
      "count": 600,
      "max": [
        1,
        1
      ],
      "min": [
        0,
        0
      ],
      "type": "VEC2"
    },
    {
      "bufferView": 15,
      "componentType": 5123,
      "count": 2148,
      "max": [
        599
      ],
      "min": [
        0
      ],
      "type": "SCALAR"
    },
    {
      "bufferView": 16,
      "componentType": 5126,
      "count": 45,
      "max": [
        2.739011764526367,
        1.192041039466858,
        5.924403667449951
      ],
      "min": [
        -2.739011764526367,
        -1.192041039466858,
        -5.924403667449951
      ],
      "type": "VEC3"
    },
    {
      "bufferView": 17,
      "componentType": 5126,
      "count": 45,
      "max": [
        1,
        1,
        1
      ],
      "min": [
        -1,
        -1,
        -1
      ],
      "type": "VEC3"
    },
    {
      "bufferView": 18,
      "componentType": 5126,
      "count": 45,
      "max": [
        1.0625,
        1
      ],
      "min": [
        -0.0625,
        0
      ],
      "type": "VEC2"
    },
    {
      "bufferView": 19,
      "componentType": 5123,
      "count": 144,
      "max": [
        44
      ],
      "min": [
        0
      ],
      "type": "SCALAR"
    },
    {
      "bufferView": 20,
      "componentType": 5126,
      "count": 45,
      "max": [
        4.618711471557617,
        7.204962730407715,
        13.501457214355469
      ],
      "min": [
        -4.618711471557617,
        -7.204962730407715,
        -13.501457214355469
      ],
      "type": "VEC3"
    },
    {
      "bufferView": 21,
      "componentType": 5126,
      "count": 45,
      "max": [
        1,
        1,
        1
      ],
      "min": [
        -1,
        -1,
        -1
      ],
      "type": "VEC3"
    },
    {
      "bufferView": 22,
      "componentType": 5126,
      "count": 45,
      "max": [
        1.0625,
        1
      ],
      "min": [
        -0.0625,
        0
      ],
      "type": "VEC2"
    },
    {
      "bufferView": 23,
      "componentType": 5123,
      "count": 144,
      "max": [
        44
      ],
      "min": [
        0
      ],
      "type": "SCALAR"
    },
    {
      "bufferView": 24,
      "componentType": 5126,
      "count": 45,
      "max": [
        37.55341720581055,
        15.524008750915527,
        32.62985610961914
      ],
      "min": [
        -37.55341720581055,
        -15.524008750915527,
        -32.62985610961914
      ],
      "type": "VEC3"
    },
    {
      "bufferView": 25,
      "componentType": 5126,
      "count": 45,
      "max": [
        1,
        1,
        1
      ],
      "min": [
        -1,
        -1,
        -1
      ],
      "type": "VEC3"
    },
    {
      "bufferView": 26,
      "componentType": 5126,
      "count": 45,
      "max": [
        1.0625,
        1
      ],
      "min": [
        -0.0625,
        0
      ],
      "type": "VEC2"
    },
    {
      "bufferView": 27,
      "componentType": 5123,
      "count": 144,
      "max": [
        44
      ],
      "min": [
        0
      ],
      "type": "SCALAR"
    },
    {
      "bufferView": 28,
      "componentType": 5126,
      "count": 21870,
      "max": [
        41.17495346069336,
        33.105140686035156,
        42.13847732543945
      ],
      "min": [
        -41.17495346069336,
        -41.08900833129883,
        -40.03449249267578
      ],
      "type": "VEC3"
    },
    {
      "bufferView": 29,
      "componentType": 5126,
      "count": 21870,
      "max": [
        1,
        0.9999874830245972,
        0.9998010396957397
      ],
      "min": [
        -1,
        -0.9999874830245972,
        -0.9998378753662109
      ],
      "type": "VEC3"
    }
  ],
  "meshes": [
    {
      "primitives": [
        {
          "mode": 4,
          "attributes": {
            "POSITION": 0,
            "NORMAL": 1,
            "TEXCOORD_0": 2
          },
          "extras": {
            "parameters": {
              "width": 1,
              "widthSegments": 1,
              "heightSegments": 1,
              "depthSegments": 1,
              "cornerRadius": 8,
              "cornerSegments": 8,
              "depth": 21.2419023144339,
              "height": 13.706943986873283,
              "type": "CubeGeometry"
            },
            "type": "CubeGeometry"
          },
          "indices": 3
        }
      ]
    },
    {
      "primitives": [
        {
          "mode": 4,
          "attributes": {
            "POSITION": 4,
            "NORMAL": 5,
            "TEXCOORD_0": 6
          },
          "extras": {
            "parameters": {
              "width": 1,
              "widthSegments": 1,
              "heightSegments": 1,
              "depthSegments": 1,
              "cornerRadius": 8,
              "cornerSegments": 8,
              "depth": 21.2419023144339,
              "height": 13.706943986873283,
              "type": "CubeGeometry"
            },
            "type": "CubeGeometry"
          },
          "indices": 7
        }
      ]
    },
    {
      "primitives": [
        {
          "mode": 4,
          "attributes": {
            "POSITION": 8,
            "NORMAL": 9,
            "TEXCOORD_0": 10
          },
          "extras": {
            "parameters": {
              "width": 1,
              "widthSegments": 1,
              "heightSegments": 1,
              "depthSegments": 1,
              "cornerRadius": 8,
              "cornerSegments": 8,
              "depth": 21.2419023144339,
              "height": 13.706943986873283,
              "type": "CubeGeometry"
            },
            "type": "CubeGeometry"
          },
          "indices": 11
        }
      ]
    },
    {
      "primitives": [
        {
          "mode": 4,
          "attributes": {
            "POSITION": 12,
            "NORMAL": 13,
            "TEXCOORD_0": 14
          },
          "extras": {
            "parameters": {
              "width": 1,
              "widthSegments": 1,
              "heightSegments": 1,
              "depthSegments": 1,
              "cornerRadius": 8,
              "cornerSegments": 8,
              "depth": 21.2419023144339,
              "height": 13.706943986873283,
              "type": "CubeGeometry"
            },
            "type": "CubeGeometry"
          },
          "indices": 15
        }
      ]
    },
    {
      "primitives": [
        {
          "mode": 4,
          "attributes": {
            "POSITION": 16,
            "NORMAL": 17,
            "TEXCOORD_0": 18
          },
          "extras": {
            "parameters": {
              "width": 5.478023409481403,
              "widthSegments": 8,
              "heightSegments": 4,
              "phiStart": 0,
              "phiLength": 6.283185307179586,
              "thetaStart": 0,
              "thetaLength": 180,
              "height": 2.3840821395433522,
              "depth": 11.848806849000558,
              "type": "SphereGeometry",
              "shapeBlendNode": {
                "overrideGlobalBlend": false,
                "blendRange": 100,
                "operation": 0,
                "useColor": false
              }
            },
            "type": "SphereGeometry"
          },
          "indices": 19
        }
      ]
    },
    {
      "primitives": [
        {
          "mode": 4,
          "attributes": {
            "POSITION": 20,
            "NORMAL": 21,
            "TEXCOORD_0": 22
          },
          "extras": {
            "parameters": {
              "width": 9.23742329454308,
              "widthSegments": 8,
              "heightSegments": 4,
              "phiStart": 0,
              "phiLength": 6.283185307179586,
              "thetaStart": 0,
              "thetaLength": 180,
              "height": 14.409926149413339,
              "depth": 27.002915486977372,
              "type": "SphereGeometry",
              "shapeBlendNode": {
                "overrideGlobalBlend": false,
                "blendRange": 100,
                "operation": 0,
                "useColor": false
              }
            },
            "type": "SphereGeometry"
          },
          "indices": 23
        }
      ]
    },
    {
      "primitives": [
        {
          "mode": 4,
          "attributes": {
            "POSITION": 24,
            "NORMAL": 25,
            "TEXCOORD_0": 26
          },
          "extras": {
            "parameters": {
              "width": 75.106836727863,
              "widthSegments": 8,
              "heightSegments": 4,
              "phiStart": 0,
              "phiLength": 6.283185307179586,
              "thetaStart": 0,
              "thetaLength": 180,
              "height": 31.048017512557777,
              "depth": 65.2597154511843,
              "type": "SphereGeometry",
              "shapeBlendNode": {
                "overrideGlobalBlend": false,
                "blendRange": 100,
                "operation": 0,
                "useColor": false
              }
            },
            "type": "SphereGeometry"
          },
          "indices": 27
        }
      ]
    },
    {
      "primitives": [
        {
          "mode": 4,
          "attributes": {
            "POSITION": 28,
            "NORMAL": 29
          },
          "extras": {
            "parameters": {
              "width": 82.34990692138672,
              "height": 74.19415283203125,
              "depth": 82.17296600341797
            }
          }
        }
      ]
    }
  ],
  "extensions": {
    "KHR_lights_punctual": {
      "lights": [
        {
          "name": "Directional Light",
          "color": [
            1,
            1,
            1
          ],
          "intensity": 0.7,
          "type": "directional"
        }
      ]
    }
  },
  "cameras": [
    {
      "type": "orthographic",
      "orthographic": {
        "xmag": 2.670720121943637,
        "ymag": 1.265455306102153,
        "zfar": 100000,
        "znear": 0
      }
    }
  ],
  "extensionsUsed": [
    "KHR_lights_punctual"
  ]
}